<mxfile host="Electron" modified="2023-10-26T15:16:09.739Z" agent="Mozilla/5.0 (X11; Linux x86_64) AppleWebKit/537.36 (KHTML, like Gecko) draw.io/22.0.3 Chrome/114.0.5735.289 Electron/25.8.4 Safari/537.36" etag="5rYuVW8K6rvZcazydypW" version="22.0.3" type="device">
  <diagram name="Страница — 1" id="qQ74WRRUDAkx5NldxwEr">
    <mxGraphModel dx="819" dy="482" grid="1" gridSize="10" guides="1" tooltips="1" connect="1" arrows="1" fold="1" page="1" pageScale="1" pageWidth="827" pageHeight="1169" math="0" shadow="0">
      <root>
        <mxCell id="0" />
        <mxCell id="1" parent="0" />
        <mxCell id="OibNpWQ0_8pWdfXW_xyB-28" value="Subject" style="swimlane;fontStyle=0;childLayout=stackLayout;horizontal=1;startSize=26;fillColor=none;horizontalStack=0;resizeParent=1;resizeParentMax=0;resizeLast=0;collapsible=1;marginBottom=0;whiteSpace=wrap;html=1;" vertex="1" parent="1">
          <mxGeometry x="40" y="40" width="180" height="102" as="geometry">
            <mxRectangle x="40" y="40" width="80" height="30" as="alternateBounds" />
          </mxGeometry>
        </mxCell>
        <mxCell id="OibNpWQ0_8pWdfXW_xyB-29" value="+ attach(observer: Observer)" style="text;strokeColor=none;fillColor=none;align=left;verticalAlign=top;spacingLeft=4;spacingRight=4;overflow=hidden;rotatable=0;points=[[0,0.5],[1,0.5]];portConstraint=eastwest;whiteSpace=wrap;html=1;" vertex="1" parent="OibNpWQ0_8pWdfXW_xyB-28">
          <mxGeometry y="26" width="180" height="24" as="geometry" />
        </mxCell>
        <mxCell id="OibNpWQ0_8pWdfXW_xyB-30" value="+ detach(observer: Observer)" style="text;strokeColor=none;fillColor=none;align=left;verticalAlign=top;spacingLeft=4;spacingRight=4;overflow=hidden;rotatable=0;points=[[0,0.5],[1,0.5]];portConstraint=eastwest;whiteSpace=wrap;html=1;" vertex="1" parent="OibNpWQ0_8pWdfXW_xyB-28">
          <mxGeometry y="50" width="180" height="26" as="geometry" />
        </mxCell>
        <mxCell id="OibNpWQ0_8pWdfXW_xyB-31" value="+ notifyObserver()" style="text;strokeColor=none;fillColor=none;align=left;verticalAlign=top;spacingLeft=4;spacingRight=4;overflow=hidden;rotatable=0;points=[[0,0.5],[1,0.5]];portConstraint=eastwest;whiteSpace=wrap;html=1;" vertex="1" parent="OibNpWQ0_8pWdfXW_xyB-28">
          <mxGeometry y="76" width="180" height="26" as="geometry" />
        </mxCell>
        <mxCell id="OibNpWQ0_8pWdfXW_xyB-64" value="" style="edgeStyle=orthogonalEdgeStyle;rounded=0;orthogonalLoop=1;jettySize=auto;html=1;" edge="1" parent="1" source="OibNpWQ0_8pWdfXW_xyB-33" target="OibNpWQ0_8pWdfXW_xyB-31">
          <mxGeometry relative="1" as="geometry">
            <Array as="points">
              <mxPoint x="130" y="150" />
              <mxPoint x="130" y="150" />
            </Array>
          </mxGeometry>
        </mxCell>
        <mxCell id="OibNpWQ0_8pWdfXW_xyB-33" value="ConcreteSubject" style="swimlane;fontStyle=0;childLayout=stackLayout;horizontal=1;startSize=26;fillColor=none;horizontalStack=0;resizeParent=1;resizeParentMax=0;resizeLast=0;collapsible=1;marginBottom=0;whiteSpace=wrap;html=1;" vertex="1" parent="1">
          <mxGeometry x="40" y="200" width="180" height="104" as="geometry" />
        </mxCell>
        <mxCell id="OibNpWQ0_8pWdfXW_xyB-34" value="- state: str" style="text;strokeColor=default;fillColor=none;align=left;verticalAlign=top;spacingLeft=4;spacingRight=4;overflow=hidden;rotatable=0;points=[[0,0.5],[1,0.5]];portConstraint=eastwest;whiteSpace=wrap;html=1;dashed=1;" vertex="1" parent="OibNpWQ0_8pWdfXW_xyB-33">
          <mxGeometry y="26" width="180" height="26" as="geometry" />
        </mxCell>
        <mxCell id="OibNpWQ0_8pWdfXW_xyB-35" value="+ set_state(state: str)" style="text;strokeColor=none;fillColor=none;align=left;verticalAlign=top;spacingLeft=4;spacingRight=4;overflow=hidden;rotatable=0;points=[[0,0.5],[1,0.5]];portConstraint=eastwest;whiteSpace=wrap;html=1;" vertex="1" parent="OibNpWQ0_8pWdfXW_xyB-33">
          <mxGeometry y="52" width="180" height="26" as="geometry" />
        </mxCell>
        <mxCell id="OibNpWQ0_8pWdfXW_xyB-36" value="+ get_state() : str" style="text;strokeColor=none;fillColor=none;align=left;verticalAlign=top;spacingLeft=4;spacingRight=4;overflow=hidden;rotatable=0;points=[[0,0.5],[1,0.5]];portConstraint=eastwest;whiteSpace=wrap;html=1;" vertex="1" parent="OibNpWQ0_8pWdfXW_xyB-33">
          <mxGeometry y="78" width="180" height="26" as="geometry" />
        </mxCell>
        <mxCell id="OibNpWQ0_8pWdfXW_xyB-65" value="" style="edgeStyle=orthogonalEdgeStyle;rounded=0;orthogonalLoop=1;jettySize=auto;html=1;" edge="1" parent="1" source="OibNpWQ0_8pWdfXW_xyB-41" target="OibNpWQ0_8pWdfXW_xyB-36">
          <mxGeometry relative="1" as="geometry">
            <Array as="points">
              <mxPoint x="130" y="310" />
              <mxPoint x="130" y="310" />
            </Array>
          </mxGeometry>
        </mxCell>
        <mxCell id="OibNpWQ0_8pWdfXW_xyB-41" value="ConcreteObserver" style="swimlane;fontStyle=0;childLayout=stackLayout;horizontal=1;startSize=26;fillColor=none;horizontalStack=0;resizeParent=1;resizeParentMax=0;resizeLast=0;collapsible=1;marginBottom=0;whiteSpace=wrap;html=1;" vertex="1" parent="1">
          <mxGeometry x="40" y="350" width="180" height="176" as="geometry" />
        </mxCell>
        <mxCell id="OibNpWQ0_8pWdfXW_xyB-42" value="- name: str&amp;nbsp;&lt;br&gt;&lt;br&gt;- subject: ConcreteSubject" style="text;strokeColor=default;fillColor=none;align=left;verticalAlign=top;spacingLeft=4;spacingRight=4;overflow=hidden;rotatable=0;points=[[0,0.5],[1,0.5]];portConstraint=eastwest;whiteSpace=wrap;html=1;dashed=1;" vertex="1" parent="OibNpWQ0_8pWdfXW_xyB-41">
          <mxGeometry y="26" width="180" height="64" as="geometry" />
        </mxCell>
        <mxCell id="OibNpWQ0_8pWdfXW_xyB-44" value="+ update()" style="text;strokeColor=none;fillColor=none;align=left;verticalAlign=top;spacingLeft=4;spacingRight=4;overflow=hidden;rotatable=0;points=[[0,0.5],[1,0.5]];portConstraint=eastwest;whiteSpace=wrap;html=1;" vertex="1" parent="OibNpWQ0_8pWdfXW_xyB-41">
          <mxGeometry y="90" width="180" height="32" as="geometry" />
        </mxCell>
        <mxCell id="OibNpWQ0_8pWdfXW_xyB-45" value="+ __init__(name: str," style="text;strokeColor=none;fillColor=none;align=left;verticalAlign=top;spacingLeft=4;spacingRight=4;overflow=hidden;rotatable=0;points=[[0,0.5],[1,0.5]];portConstraint=eastwest;whiteSpace=wrap;html=1;" vertex="1" parent="OibNpWQ0_8pWdfXW_xyB-41">
          <mxGeometry y="122" width="180" height="18" as="geometry" />
        </mxCell>
        <mxCell id="OibNpWQ0_8pWdfXW_xyB-46" value="subject: ConcreteSubject)" style="text;strokeColor=none;fillColor=none;align=left;verticalAlign=top;spacingLeft=4;spacingRight=4;overflow=hidden;rotatable=0;points=[[0,0.5],[1,0.5]];portConstraint=eastwest;whiteSpace=wrap;html=1;" vertex="1" parent="OibNpWQ0_8pWdfXW_xyB-41">
          <mxGeometry y="140" width="180" height="36" as="geometry" />
        </mxCell>
        <mxCell id="OibNpWQ0_8pWdfXW_xyB-63" value="&lt;p style=&quot;margin:0px;margin-top:4px;text-align:center;&quot;&gt;Observer&lt;br&gt;&lt;/p&gt;&lt;hr size=&quot;1&quot;&gt;&lt;div style=&quot;text-align: center; height: 2px;&quot;&gt;&amp;nbsp; &amp;nbsp; &amp;nbsp;&lt;/div&gt;&lt;div style=&quot;text-align: center;&quot;&gt;&lt;span style=&quot;background-color: initial;&quot;&gt;+ update()&lt;/span&gt;&lt;/div&gt;&lt;div style=&quot;text-align: center; height: 2px;&quot;&gt;&amp;nbsp;&amp;nbsp; &amp;nbsp; &amp;nbsp; &amp;nbsp; &amp;nbsp; &amp;nbsp; &amp;nbsp; &amp;nbsp; &amp;nbsp;&amp;nbsp;&lt;/div&gt;" style="verticalAlign=top;align=left;overflow=fill;fontSize=12;fontFamily=Helvetica;html=1;whiteSpace=wrap;" vertex="1" parent="1">
          <mxGeometry x="360" y="40" width="160" height="60" as="geometry" />
        </mxCell>
        <mxCell id="OibNpWQ0_8pWdfXW_xyB-68" style="edgeStyle=orthogonalEdgeStyle;rounded=0;orthogonalLoop=1;jettySize=auto;html=1;entryX=0.5;entryY=1;entryDx=0;entryDy=0;exitX=0.997;exitY=0.292;exitDx=0;exitDy=0;exitPerimeter=0;" edge="1" parent="1" source="OibNpWQ0_8pWdfXW_xyB-46" target="OibNpWQ0_8pWdfXW_xyB-63">
          <mxGeometry relative="1" as="geometry" />
        </mxCell>
        <mxCell id="OibNpWQ0_8pWdfXW_xyB-71" style="edgeStyle=orthogonalEdgeStyle;rounded=0;orthogonalLoop=1;jettySize=auto;html=1;entryX=0;entryY=0.5;entryDx=0;entryDy=0;" edge="1" parent="1" source="OibNpWQ0_8pWdfXW_xyB-30" target="OibNpWQ0_8pWdfXW_xyB-63">
          <mxGeometry relative="1" as="geometry" />
        </mxCell>
      </root>
    </mxGraphModel>
  </diagram>
</mxfile>
